<svg width="72" height="85" viewBox="0 0 72 85" fill="none" xmlns="http://www.w3.org/2000/svg">
<path d="M57.0902 5.86328L24.9293 8.79495L18.5528 17.571L23.2679 22.2674L16.805 22.533L12.3203 26.3091L26.725 26.5463V26.5083L31.9492 20.9486L28.492 17.6469L49.3309 16.1384L57.0902 5.86328Z" fill="#2C39F2"/>
<path d="M55.9524 4.17348L10.3906 68.4033L11.9005 69.4488L57.4623 5.21891L55.9524 4.17348Z" fill="black"/>
<path d="M60.1258 0.275391L55.3242 3.77631L56.6399 4.7725H56.6495L57.9651 5.7687L60.1258 0.275391Z" fill="black"/>
<path d="M24.331 70.0967L20.6914 77.2978L28.6044 84.0814L38.2651 83.8727" fill="white"/>
<path d="M28.2626 85.0005L19.543 77.5243L23.4995 69.6875L25.1512 70.5034L21.8285 77.0689L28.9348 83.1599L38.2402 82.9607L38.2786 84.7823L28.2626 85.0005Z" fill="black"/>
<path d="M52.4492 46.175L56.4249 42.7783L57.6541 47.3989" fill="white"/>
<path d="M56.7723 47.6377L55.908 44.4214L53.0559 46.8597L51.8555 45.484L56.9356 41.1387L58.5489 47.1728L56.7723 47.6377Z" fill="black"/>
<path d="M47.5352 44.8461L51.5013 41.459L52.7401 46.0794" fill="white"/>
<path d="M51.8465 46.3078L50.9918 43.101L48.1301 45.5393L46.9297 44.1541L52.0194 39.8184L53.6231 45.8429L51.8465 46.3078Z" fill="black"/>
<path d="M42.418 43.3891L45.1645 38.5029L47.6229 44.6224" fill="white"/>
<path d="M46.778 44.954L45.0302 40.6182L43.2344 43.825L41.6211 42.9427L45.3087 36.3867L48.4874 44.2804L46.778 44.954Z" fill="black"/>
<path d="M41.7032 59.7431C42.1546 50.7488 46.6969 50.6445 46.5912 51.2042L53.0446 51.4224C55.9543 51.2042 57.5005 50.3503 57.6541 47.3997L47.5516 45.0088L43.7487 45.9576L43.0092 41.1284L46.5528 35.8248L49.7507 38.5003L53.3519 33.026L57.0107 36.413L59.882 31.8021L63.7329 35.5876L66.0185 30.2556L66.1625 28.5383L66.3354 26.4036L61.2169 16.9824L44.3825 21.8306L34.8561 26.6882C34.8561 26.6882 25.4642 28.1778 26.4918 38.9273V49.2688L23.3803 57.3807L6.58437 47.6274L4.875 49.3541C7.33342 57.2763 12.1158 63.0637 19.1069 67.6557L20.653 69.003L28.1627 72.466L26.4438 76.0618L31.2069 80.1699L35.6148 84.0788H46.5432L46.5528 82.8454C46.5528 80.6727 46.2839 78.0636 43.1629 77.9308H39.0143L36.2774 74.0219C36.2774 74.0219 39.2736 67.2857 38.8991 65.0846" fill="white"/>
<path d="M47.4554 84.9903H35.2594L30.5922 80.8537L25.3201 76.2996L26.9334 72.903L20.0383 69.6773L18.5402 68.368C11.1554 63.5008 6.39218 57.3623 3.99138 49.611L3.82812 49.0892L6.43059 46.4706L22.9001 56.0341L25.5601 49.0892V38.909C24.5422 28.3208 33.2331 26.0722 34.5391 25.7971L44.1135 20.9299L61.6681 15.873L67.2668 26.1861L66.8634 30.5883L64.0497 37.1632L60.0548 33.2449L57.193 37.8274L53.515 34.4213L49.9426 39.8577L46.7448 37.1822L43.9694 41.3378L44.5072 44.8292L47.5514 44.0702L58.6143 46.6888L58.5759 47.4478C58.3742 51.4041 55.7045 52.1442 53.1213 52.3339H53.0733L45.6692 52.0777C45.4964 52.1631 45.3043 52.2865 45.0834 52.4667C44.2671 53.1593 42.8651 55.0379 42.6346 59.7817L40.7908 59.6868C41.1365 52.8273 43.835 50.9013 44.9778 50.389C45.7652 50.0379 46.5335 50.0095 47.0137 50.3036L53.0349 50.5123C55.426 50.3225 56.396 49.7248 56.6649 48.093L47.561 45.9393L42.9899 47.0778L42.0392 40.9108L46.351 34.4593L49.5393 37.1253L53.1789 31.6035L56.8089 34.9716L59.6995 30.3322L63.4063 33.9754L65.0965 30.0191L65.375 26.5751L60.7366 18.0362L44.6993 22.6567L35.0001 27.5618C34.6544 27.6187 26.4724 29.0703 27.4039 38.8236V49.4117L23.8508 58.6811L6.73789 48.7666L5.92162 49.592C8.2744 56.7931 12.6343 62.2959 19.6158 66.8879L19.7118 66.9638L21.1523 68.2257L29.3822 72.0207L27.5672 75.8252L31.8022 79.4874L35.9604 83.1686H45.6212V82.8366C45.6212 79.9618 44.9682 78.9182 43.1148 78.8328H38.5244L35.2209 74.1175L35.4322 73.6526C36.5462 71.1478 38.2363 66.6412 37.9867 65.2276L39.8017 64.924C40.1666 67.0492 38.1115 72.0966 37.324 73.9182L39.4944 77.0207H43.1628C47.465 77.2009 47.465 81.2996 47.465 82.8461L47.4554 84.9903Z" fill="black"/>
<path d="M38.6777 65.845C39.9069 64.2795 42.663 59.0139 42.663 59.0139L45.8801 56.2056L45.9665 55.0955L46.3698 49.9342L49.9998 46.4713C46.3986 41.0254 40.8096 45.4846 40.8096 45.4846L40.3102 52.6003L38.5624 52.2587L35.2109 53.3972" fill="white"/>
<path d="M39.4746 66.4715L37.8613 65.2286C38.8216 64.0047 40.9919 60.0009 41.741 58.5588L41.8274 58.388L44.8812 55.7315L45.3614 49.4791L48.6264 46.3672C47.887 45.4943 47.0323 44.982 46.072 44.8302C44.2858 44.555 42.4996 45.5607 41.7698 46.0351L41.2224 53.815L38.6103 53.3122L35.5181 54.3558L34.8555 52.4488L38.4663 51.2249L39.3498 51.3956L39.8011 44.9725L40.1468 44.6974C40.2717 44.6025 43.1718 42.3254 46.3985 42.8283C48.1751 43.1034 49.6732 44.1471 50.8448 45.9213L51.3057 46.6233L47.3492 50.3994L46.8595 56.6992L43.4695 59.6499C42.9798 60.5892 40.6366 65.0009 39.4746 66.4715Z" fill="black"/>
<path d="M41.9542 32.149L35.3789 33.9678L35.8734 35.7228L42.4487 33.904L41.9542 32.149Z" fill="black"/>
<path d="M41.5771 32.3304L36.75 36.418L37.95 37.8011L42.777 33.7136L41.5771 32.3304Z" fill="black"/>
<path d="M45.2941 26.897L44.7852 25.1512L54.8493 22.3145L56.9428 23.7471L55.896 25.2461L54.5132 24.2974L45.2941 26.897Z" fill="black"/>
<path d="M63.3589 39.1834L63.1914 40.9785L71.0616 41.6953L71.2291 39.9002L63.3589 39.1834Z" fill="#2C39F2"/>
<path d="M68.6103 50.635L63.7895 49.06L64.8075 45.5875L59.1992 43.9271L59.8138 41.9062L67.4291 44.1738L66.4112 47.6938L69.273 48.6331L68.6103 50.635Z" fill="#2C39F2"/>
<path d="M38.8936 65.0745C37.0882 54.5907 28.6758 58.1675 28.6758 58.1675L38.8936 65.0745Z" fill="white"/>
<path d="M37.9751 65.2253C37.4469 62.1418 36.2753 60.083 34.4987 59.1248C32.0211 57.787 29.0633 58.992 29.0345 59.0015L28.3047 57.3316C28.4583 57.2652 32.0883 55.7567 35.363 57.5214C37.6678 58.7548 39.1563 61.25 39.7901 64.9217L37.9751 65.2253Z" fill="black"/>
<path d="M20.0734 38.502L23.1464 41.6803L24.2988 45.9022L24.0299 47.5246L19.3147 50.7124L16.7891 42.1926L20.0734 38.502Z" fill="white"/>
<path d="M18.7828 52.1731L15.7578 41.9645L20.0408 37.1543L23.9589 41.215L25.2362 45.8449L24.8712 48.046L18.7828 52.1731ZM17.8129 42.4104L19.8392 49.2509L23.1811 46.9929L23.3539 45.9492L22.3072 42.1447L20.0888 39.8488L17.8129 42.4104Z" fill="black"/>
<path d="M13.5486 33.8162C13.5486 33.8162 12.79 30.7422 11.1862 29.4519C9.43844 28.0477 8.7278 27.877 8.7278 27.877L8.75661 29.8883L8.48772 29.6416C7.30652 28.5695 5.4819 28.598 4.33912 29.6986L5.61635 30.3627C4.23348 31.0648 3.14832 32.2318 2.56252 33.6644L2.25521 34.4139L3.65729 34.7744L2.10156 41.9091L6.49024 36.0268L9.11193 32.6682L13.5486 33.8162Z" fill="white"/>
<path d="M0.292969 45.864L2.56892 35.4372L1.0036 35.0292L1.70464 33.3214C2.16559 32.2019 2.88583 31.2152 3.81734 30.4562L2.7898 29.9154L3.6925 29.052C4.81607 27.9704 6.4294 27.6763 7.81226 28.1886L7.79306 26.7275L8.93583 26.9932C9.1471 27.0406 9.99219 27.3158 11.7688 28.7484C13.5646 30.1905 14.3616 33.255 14.4481 33.6061L14.813 35.0861L9.47361 33.7104L7.22647 36.5947L0.292969 45.864ZM3.50043 33.7958L4.73924 34.1184L3.90377 37.9609L5.74758 35.4941L8.75338 31.6421L9.54084 31.8414L7.86028 30.3139C7.45694 29.9438 6.94798 29.7636 6.43901 29.7636C6.4294 29.7636 6.4294 29.7636 6.4198 29.7636L7.60099 30.3803L6.02607 31.1772C4.9121 31.7465 4.019 32.6668 3.50043 33.7958ZM9.69449 31.8793L12.1337 32.515C11.7688 31.6516 11.2502 30.6839 10.5972 30.1621C10.2323 29.8679 9.92496 29.6402 9.65607 29.4505L9.69449 31.8793Z" fill="black"/>
<path d="M27.4064 65.569L34.0134 66.9352V66.8783C34.1094 65.1895 33.1011 63.6335 31.5165 62.9979L31.2668 62.8935L31.8815 53.5387L22.1342 50.1611C20.0407 50.4837 18.9171 52.7797 19.9831 54.5918L20.348 55.2275L26.7245 56.4989L27.5408 63.0168L27.4064 65.569Z" fill="white"/>
<path d="M34.8987 67.9794L33.8424 67.8181L26.4575 66.2906L26.6304 63.0363L25.9005 57.2489L19.7641 56.025L19.1879 55.0383C18.5445 53.9282 18.4869 52.5715 19.0534 51.414C19.62 50.2565 20.7148 49.4501 22.0016 49.2508L22.2321 49.2129L32.8628 52.8941L32.2482 62.2963C33.9864 63.1597 35.062 64.9623 34.9563 66.9073L34.8987 67.9794ZM28.3781 64.839L32.9781 65.7877C32.7092 64.9149 32.0658 64.1938 31.1823 63.8428L30.3084 63.5012L30.9134 54.1749L22.0592 51.1104C21.4638 51.2622 20.9645 51.6607 20.6956 52.2205C20.3883 52.8466 20.4171 53.5487 20.7724 54.1464L20.9357 54.4216L27.5619 55.7404L28.4742 62.9889L28.3781 64.839Z" fill="black"/>
<path d="M21.326 35.4278C22.44 34.6308 22.392 33.6915 22.1327 32.3538L22.1039 32.183L20.4041 33.1033C19.0212 31.3386 16.2843 31.0255 14.527 32.7807C13.2881 34.0236 13.1249 35.9685 14.018 37.4771L14.0276 37.4866C14.9687 39.0615 16.8893 39.8869 18.6467 39.3082C19.1941 39.1279 19.6647 38.8528 20.0584 38.5017L20.1544 38.5397L20.2312 38.331C20.9995 37.553 21.3836 36.4904 21.326 35.4278Z" fill="white"/>
<path d="M17.5026 40.3989C15.8124 40.3989 14.1511 39.4881 13.2292 37.9416C12.0864 36.0251 12.3553 33.6437 13.863 32.1352C14.8713 31.1295 16.187 30.6172 17.5986 30.7025C18.7222 30.769 19.7689 31.2149 20.5852 31.9549L22.7747 30.7784L23.034 32.1826C23.2837 33.5109 23.399 34.7917 22.237 35.8543C22.1889 36.9454 21.7568 37.9985 21.0174 38.8144L20.6716 39.7347L20.2011 39.545C19.817 39.8106 19.3848 40.0194 18.9335 40.1712C18.4629 40.323 17.9828 40.3989 17.5026 40.3989ZM17.3105 32.5242C16.5135 32.5242 15.7644 32.8373 15.1786 33.4255C14.2567 34.3458 14.1031 35.8259 14.8137 37.0213C15.5628 38.2831 17.0512 38.8809 18.3573 38.4539C18.7606 38.3211 19.1255 38.1124 19.4328 37.8372L19.5673 37.7044C20.1435 37.1162 20.4508 36.3097 20.4028 35.4843L20.3739 34.9909L20.7869 34.6968C21.1902 34.4122 21.3631 34.1465 21.3631 33.6247L20.1531 34.2794L19.6729 33.6627C19.1543 32.9985 18.3573 32.5811 17.493 32.5337C17.4354 32.5242 17.3778 32.5242 17.3105 32.5242Z" fill="black"/>
<path d="M19.924 32.2833L17.0586 33.9453L17.9921 35.5163L20.8575 33.8542L19.924 32.2833Z" fill="black"/>
<path d="M17.0691 45.7967C18.7663 45.7967 20.1421 44.4374 20.1421 42.7606C20.1421 41.0839 18.7663 39.7246 17.0691 39.7246C15.3719 39.7246 13.9961 41.0839 13.9961 42.7606C13.9961 44.4374 15.3719 45.7967 17.0691 45.7967Z" fill="white"/>
<path d="M17.0711 46.7087C16.13 46.7087 15.2177 46.3766 14.4878 45.7694C13.6716 45.0863 13.1818 44.1281 13.0954 43.0844C13.0089 42.0313 13.345 41.0161 14.0365 40.2097C14.7279 39.4032 15.6882 38.9194 16.7542 38.834C18.9533 38.6537 20.8739 40.2761 21.0564 42.4488C21.2293 44.6119 19.5967 46.519 17.3976 46.6992C17.292 46.7087 17.1767 46.7087 17.0711 46.7087ZM17.0807 40.6366C17.0231 40.6366 16.9654 40.6366 16.9078 40.6461C16.3316 40.6936 15.8131 40.9592 15.4385 41.3862C15.064 41.8226 14.8912 42.3729 14.9392 42.9326C14.9872 43.5019 15.2561 44.0142 15.6882 44.3842C16.1204 44.7543 16.687 44.925 17.2535 44.8871C18.4347 44.7922 19.3182 43.7675 19.2222 42.5911C19.1262 41.481 18.185 40.6366 17.0807 40.6366Z" fill="black"/>
<path d="M27.8828 44.2144C30.8598 43.6735 31.8969 43.7874 32.55 45.6375C32.9053 46.6338 32.3099 47.7154 31.3592 47.7723L28.507 47.9621L27.8828 44.2144Z" fill="white"/>
<path d="M27.7347 48.9285L26.832 43.4828L27.7155 43.3215C30.5389 42.7997 32.4691 42.6668 33.4198 45.3328C33.6983 46.1203 33.6023 46.9931 33.1413 47.6667C32.738 48.2644 32.1042 48.6344 31.4032 48.6724L27.7347 48.9285ZM28.9447 44.9628L29.2808 47.0026L31.2975 46.8698C31.4608 46.8603 31.5568 46.7559 31.6144 46.6705C31.7201 46.5187 31.7873 46.2436 31.6816 45.9495C31.3551 45.0292 31.2207 44.6307 28.9447 44.9628Z" fill="black"/>
<path d="M27.3354 56.1743L27.0195 57.9688L31.1824 58.6838L31.4982 56.8893L27.3354 56.1743Z" fill="black"/>
<path d="M17.4159 54.5862L16.4611 42.947L28.5823 41.9739L29.5371 53.6144L23.8058 58.0058L17.4159 54.5862Z" fill="#2C39F2" stroke="black"/>
<path d="M27.036 51.1511C27.1609 51.1416 27.3049 51.1131 27.449 51.0562L27.545 52.4414C27.1993 52.5837 26.7575 52.7071 26.335 52.745C25.5571 52.8019 24.9425 52.5742 24.5872 52.0429C23.8766 52.6596 23.0219 53.0581 21.8887 53.134C20.4482 53.2384 19.1518 52.5363 19.0462 51.0942C18.9117 49.2441 20.7075 48.5325 22.2344 48.4281C22.8394 48.3807 23.5213 48.4092 24.0686 48.4946L24.0494 48.2384C23.9918 47.5078 23.358 47.0524 22.1576 47.1378C21.1013 47.2137 20.1794 47.5553 19.4879 47.8779L19.3535 46.0562C19.9585 45.8096 21.1013 45.4395 22.2921 45.3542C24.5872 45.1929 26.1237 45.9803 26.2966 48.3807L26.4694 50.7052C26.4887 51.0847 26.7575 51.1701 27.036 51.1511ZM21.0052 50.819C21.0532 51.4167 21.6583 51.7583 22.3977 51.7109C23.0795 51.6634 23.7229 51.4357 24.2511 50.9234L24.1551 49.671C23.7806 49.6141 23.214 49.5572 22.705 49.5951C21.8119 49.652 20.9476 50.0031 21.0052 50.819Z" fill="white"/>
</svg>
