<svg width="26" height="40" viewBox="0 0 26 40" fill="none" xmlns="http://www.w3.org/2000/svg">
<path d="M0.132812 39.3954V0.764648H15.418C18.7927 0.764648 21.3734 1.77066 23.1599 3.58147C24.9465 5.59349 25.7405 8.20912 25.7405 11.4283C25.7405 14.8488 24.9465 17.4644 23.1599 19.2752C21.3734 21.2872 18.7927 22.092 15.418 22.092H3.50744V38.993H0.132812V39.3954ZM3.50744 19.4764H15.418C17.6016 19.4764 19.3882 18.8728 20.5793 17.6656C21.7703 16.4584 22.3659 14.8488 22.3659 13.038V10.4223C22.3659 8.61152 21.7703 7.00191 20.5793 5.7947C19.3882 4.58748 17.8001 3.98388 15.418 3.98388H3.50744V19.4764Z" fill="black"/>
</svg>
