<svg width="33" height="40" viewBox="0 0 33 40" fill="none" xmlns="http://www.w3.org/2000/svg">
<path d="M16.537 40.0001C11.5743 40.0001 7.80255 38.3905 4.8249 34.97C2.04577 31.5496 0.65625 26.7208 0.65625 20.0811C0.65625 13.4414 2.04577 8.61259 4.8249 5.19216C7.60404 1.77173 11.5743 0.162109 16.537 0.162109C21.4998 0.162109 25.2714 1.77173 28.0506 5.19216C30.8297 8.61259 32.2193 13.4414 32.2193 20.0811C32.2193 26.5196 30.8297 31.5496 28.0506 34.97C25.2714 38.3905 21.4998 40.0001 16.537 40.0001ZM16.537 37.1833C18.3236 37.1833 20.1102 36.7809 21.4998 36.1773C23.0878 35.5737 24.2789 34.5676 25.2714 33.3604C26.264 32.1532 27.2565 30.5436 27.852 28.7328C28.4476 26.922 28.6461 24.9099 28.6461 22.4955V17.6667C28.6461 15.4535 28.4476 13.2402 27.852 11.4294C27.2565 9.6186 26.4625 8.00899 25.2714 6.80178C24.2789 5.59456 22.8893 4.58855 21.4998 3.98495C20.1102 3.38134 18.3236 2.97894 16.537 2.97894C14.7504 2.97894 12.9638 3.38134 11.5743 3.98495C9.9862 4.58855 8.79515 5.59456 7.60409 6.80178C6.41303 8.00899 5.61896 9.6186 5.02343 11.4294C4.4279 13.2402 4.2294 15.2523 4.2294 17.6667V22.4955C4.2294 24.7087 4.4279 26.922 5.02343 28.7328C5.61896 30.5436 6.41303 32.1532 7.60409 33.3604C8.59664 34.5676 9.9862 35.5737 11.5743 36.1773C12.9638 36.7809 14.7504 37.1833 16.537 37.1833Z" fill="black"/>
</svg>
